# xmcd
#
# Track frame offsets:
#	150
#	18076
#	34006
#	42635
#	58100
#	80300
#	99005
#	110255
#	128973
#	146673
#	166083
#	181548
#	200283
#
# Disc length: 2980 seconds
#
# Revision: 0
# Processed by: cddbd v1.5.2PL0 Copyright (c) Steve Scherf et al.
# Submitted via: dBpowerAMP V4.0
#
DISCID=9a0ba20d
DTITLE=Eric Mc FADDEN - Train to Salvation
DYEAR=2009
DGENRE=
TTITLE0=That's how I know I'm here
TTITLE1=Last day of my life
TTITLE2=Stealing from the dead
TTITLE3=Drive
TTITLE4=All those tomorrows
TTITLE5=Fair trade
TTITLE6=Percival
TTITLE7=Ramblin' man
TTITLE8=Where is Ferdinand ?
TTITLE9=Killin time
TTITLE10=Edgar Allan polka
TTITLE11=Shine down
TTITLE12=Train to Salvation
EXTD=Too hard to classify - between rock and blues, between melody and rhythmic, a warm voice does the job. Just enjoy. Eric SBGNC
EXTT0=
EXTT1=
EXTT2=
EXTT3=
EXTT4=
EXTT5=
EXTT6=
EXTT7=
EXTT8=
EXTT9=
EXTT10=
EXTT11=
EXTT12=
PLAYORDER=
